<?xml version="1.0" encoding="UTF-8" standalone="no"?>
<!-- Created with Inkscape (http://www.inkscape.org/) -->
<svg
   xmlns:svg="http://www.w3.org/2000/svg"
   xmlns="http://www.w3.org/2000/svg"
   version="1.0"
   width="83"
   height="30"
   id="svg2">
  <defs
     id="defs4" />
  <g
     transform="translate(-224.7093,-369.49894)"
     id="layer1">
    <g
       transform="matrix(0.2324599,0,0,0.2324599,226.59859,371.01039)"
       id="g2402">
      <path
         d="M 94.738,48.215 L 112.591,15.311 L 112.918,15.311 L 116.021,48.215 M 56.178,78.402 L 77.897,78.402 L 86.563,62.658 L 117.945,62.658 L 120.031,78.402 L 144.571,78.402 L 130.286,0 L 103.79,0 L 56.178,78.402 z"
         id="path2384" />
      <polyline
         id="polyline2386"
         points="163.473,15.529 139.582,15.529 142.885,0 213.142,0 209.841,15.529 185.407,15.529 172.044,78.402 150.109,78.402   " />
      <polyline
         id="polyline2388"
         points="217.05,0 239.094,0 231.777,34.423 264.18,0 289.913,0 255.533,34.533 275.422,78.402 248.492,78.402   231.294,36.702 222.43,78.402 200.385,78.402 " />
      <path
         d="M 207.337,113.563 C -2.934,121.459 -61.178,63.877 69.13,29.652 C -51.965,75.724 53.333,109.613 207.337,113.563"
         id="path2390" />
      <path
         d="M 150.078,101.716 C 337.644,124.422 398.849,52.358 273.476,29.653 C 395.163,65.673 281.373,111.588 150.078,101.716"
         id="path2392" />
    </g>
  </g>
</svg>
